<?xml version="1.0" standalone="no"?>
<!DOCTYPE svg PUBLIC "-//W3C//DTD SVG 1.1//EN" "http://www.w3.org/Graphics/SVG/1.1/DTD/svg11.dtd" >
<svg>
<metadata>
Created by FontForge 20090914 at Sat Nov 14 11:51:17 2020
 By www-data
&#194;&#169; Copyright Copyright skeddles 2015, FFDec v.11.2.0.
</metadata>
<defs>
<font id="Thintel" horiz-adv-x="320" >
  <font-face 
    font-family="Thintel"
    font-weight="400"
    font-style="italic"
    font-stretch="normal"
    units-per-em="1024"
    panose-1="0 0 0 0 0 0 0 0 0 0"
    ascent="819"
    descent="-205"
    x-height="320"
    cap-height="448"
    bbox="-64 -192 448 683"
    underline-thickness="60"
    underline-position="30"
    slope="10"
    unicode-range="U+0020-U+201D"
  />
<missing-glyph horiz-adv-x="512" 
d="M0 683v-683h438v683h-438zM365 610v-537h-292v537h292z" />
    <glyph glyph-name=".notdef" horiz-adv-x="512" 
d="M0 683v-683h438v683h-438zM365 610v-537h-292v537h292z" />
    <glyph glyph-name="space" unicode=" " horiz-adv-x="128" 
 />
    <glyph glyph-name="exclam" unicode="!" horiz-adv-x="128" 
d="M0 0h64v64h-64v-64v0zM0 128h64v320h-64v-320v0z" />
    <glyph glyph-name="quotedbl" unicode="&#x22;" horiz-adv-x="256" 
d="M0 320h64v128h-64v-128v0zM128 320h64v128h-64v-128v0z" />
    <glyph glyph-name="numbersign" unicode="#" horiz-adv-x="384" 
d="M192 192h-128v64h128v-64v0zM0 0h64v128h64v-128h64v128h128v64h-64v64h64v64h-64v128h-64v-128h-64v128h-64v-128h-128v-64h64v-64h-64v-64h64v-128v0z" />
    <glyph glyph-name="dollar" unicode="$" horiz-adv-x="384" 
d="M0 64h64v64h-64v-64v0zM256 64h64v128h-64v-128h-64v128h64v64h-64v128h64v64h-64v64h-64v-64h-64v-64h64v-128h-64v-64h64v-128h-64v-64h64v-64h64v64h64v64v0zM0 256h64v128h-64v-128v0zM256 320h64v64h-64v-64v0z" />
    <glyph glyph-name="percent" unicode="%" horiz-adv-x="512" 
d="M320 0h64v64h-64v-64v0zM128 0h64v128h-64v-128v0zM256 64h64v64h-64v-64v0zM384 64h64v64h-64v-64v0zM320 128h64v64h-64v-64v0zM64 192h64v64h-64v-64v0zM192 128h64v128h-64v-128v0zM0 256h64v64h-64v-64v0zM128 256h64v64h-64v-64v0zM64 320h64v64h-64v-64v0z
M256 256h64v128h-64v-128v0z" />
    <glyph glyph-name="ampersand" unicode="&#x26;" horiz-adv-x="384" 
d="M64 0h128v64h-128v-64v0zM256 0h64v64h-64v-64v0zM192 64h64v64h-64v-64v0zM0 64h64v128h-64v-128v0zM128 128h64v64h-64v-64v0zM64 192h64v64h-64v-64v0zM256 128h64v128h-64v-128v0zM0 256h64v128h-64v-128v0zM128 256h64v128h-64v-128v0zM64 384h64v64h-64v-64v0z" />
    <glyph glyph-name="quotesingle" unicode="'" horiz-adv-x="128" 
d="M0 320h64v128h-64v-128v0z" />
    <glyph glyph-name="parenleft" unicode="(" horiz-adv-x="192" 
d="M64 -64h64v64h-64v-64v0zM0 0h64v448h-64v-448v0zM64 448h64v64h-64v-64v0z" />
    <glyph glyph-name="parenright" unicode=")" horiz-adv-x="192" 
d="M0 -64h64v64h-64v-64v0zM64 0h64v448h-64v-448v0zM0 448h64v64h-64v-64v0z" />
    <glyph glyph-name="asterisk" unicode="*" horiz-adv-x="256" 
d="M0 192h64v64h-64v-64v0zM128 192h64v64h-64v-64v0zM64 256h64v64h64v64h-64v64h-64v-64h-64v-64h64v-64v0z" />
    <glyph glyph-name="plus" unicode="+" horiz-adv-x="384" 
d="M128 64h64v128h128v64h-128v128h-64v-128h-128v-64h128v-128v0z" />
    <glyph glyph-name="comma" unicode="," horiz-adv-x="192" 
d="M0 -128h64v64h-64v-64v0zM64 -64h64v128h-128v-64h64v-64v0z" />
    <glyph glyph-name="hyphen" unicode="-" 
d="M0 192h256v64h-256v-64v0z" />
    <glyph glyph-name="period" unicode="." horiz-adv-x="128" 
d="M0 0h64v64h-64v-64v0z" />
    <glyph glyph-name="slash" unicode="/" horiz-adv-x="256" 
d="M0 0h64v128h-64v-128v0zM64 128h64v192h-64v-192v0zM128 320h64v128h-64v-128v0z" />
    <glyph glyph-name="zero" unicode="0" 
d="M64 0h128v64h-128v-64v0zM0 64h64v320h-64v-320v0zM192 64h64v320h-64v-320v0zM64 384h128v64h-128v-64v0z" />
    <glyph glyph-name="one" unicode="1" horiz-adv-x="256" 
d="M0 0h192v64h-64v384h-64v-64h-64v-64h64v-256h-64v-64v0z" />
    <glyph glyph-name="two" unicode="2" 
d="M0 0h256v64h-192v64h-64v-128v0zM64 128h64v64h-64v-64v0zM128 192h64v64h-64v-64v0zM0 320h64v64h-64v-64v0zM192 256h64v128h-64v-128v0zM64 384h128v64h-128v-64v0z" />
    <glyph glyph-name="three" unicode="3" 
d="M64 0h128v64h-128v-64v0zM0 64h64v64h-64v-64v0zM192 64h64v128h-64v-128v0zM128 192h64v64h-64v-64v0zM0 320h64v64h-64v-64v0zM192 256h64v128h-64v-128v0zM64 384h128v64h-128v-64v0z" />
    <glyph glyph-name="four" unicode="4" 
d="M64 256h64v128h-64v-128h-64v-128h192v-128h64v448h-128v-64h64v-192h-128v64v0z" />
    <glyph glyph-name="five" unicode="5" 
d="M64 0h128v64h-128v-64v0zM0 64h64v64h-64v-64v0zM192 64h64v192h-64v-192v0zM0 256h192v64h-128v64h192v64h-256v-192v0z" />
    <glyph glyph-name="six" unicode="6" 
d="M64 0h128v64h-128v-64v0zM192 64h64v128h-64v-128v0zM0 64h64v128h128v64h-128v128h-64v-320v0zM192 320h64v64h-64v-64v0zM64 384h128v64h-128v-64v0z" />
    <glyph glyph-name="seven" unicode="7" 
d="M64 0h64v192h-64v-192v0zM128 192h64v128h-64v-128v0zM192 320h64v128h-256v-64h192v-64v0z" />
    <glyph glyph-name="eight" unicode="8" 
d="M64 0h128v64h-128v-64v0zM0 64h64v128h-64v-128v0zM192 64h64v128h-64v-128v0zM64 192h128v64h-128v-64v0zM0 256h64v128h-64v-128v0zM192 256h64v128h-64v-128v0zM64 384h128v64h-128v-64v0z" />
    <glyph glyph-name="nine" unicode="9" 
d="M64 0h128v64h-128v-64v0zM0 64h64v64h-64v-64v0zM0 256h64v128h-64v-128v0zM192 64h64v320h-64v-128h-128v-64h128v-128v0zM64 384h128v64h-128v-64v0z" />
    <glyph glyph-name="colon" unicode=":" horiz-adv-x="128" 
d="M0 0h64v64h-64v-64v0zM0 192h64v64h-64v-64v0z" />
    <glyph glyph-name="semicolon" unicode=";" horiz-adv-x="192" 
d="M0 -128h64v64h-64v-64v0zM64 -64h64v128h-128v-64h64v-64v0zM0 192h128v64h-128v-64v0z" />
    <glyph glyph-name="less" unicode="&#x3c;" 
d="M192 0h64v64h-64v-64v0zM128 64h64v64h-64v-64v0zM64 128h64v64h-64v-64v0zM0 192h64v64h-64v-64v0zM64 256h64v64h-64v-64v0zM128 320h64v64h-64v-64v0zM192 384h64v64h-64v-64v0z" />
    <glyph glyph-name="equal" unicode="=" 
d="M0 128h256v64h-256v-64v0zM0 256h256v64h-256v-64v0z" />
    <glyph glyph-name="greater" unicode="&#x3e;" 
d="M0 0h64v64h-64v-64v0zM64 64h64v64h-64v-64v0zM128 128h64v64h-64v-64v0zM192 192h64v64h-64v-64v0zM128 256h64v64h-64v-64v0zM64 320h64v64h-64v-64v0zM0 384h64v64h-64v-64v0z" />
    <glyph glyph-name="question" unicode="?" 
d="M64 0h64v64h-64v-64v0zM64 128h64v64h64v64h-128v-128v0zM0 320h64v64h-64v-64v0zM192 256h64v128h-64v-128v0zM64 384h128v64h-128v-64v0z" />
    <glyph glyph-name="at" unicode="@" horiz-adv-x="512" 
d="M128 0h192v64h-192v-64v0zM64 64h64v64h-64v-64v0zM320 128h64v64h-64v-64v0zM128 128h128v64h-64v64h-64v-128v0zM0 128h64v192h-64v-192v0zM256 192h64v128h-128v-64h64v-64v0zM384 192h64v128h-64v-128v0zM64 320h64v64h-64v-64v0zM320 320h64v64h-64v-64v0zM128 384
h192v64h-192v-64v0z" />
    <glyph glyph-name="A" unicode="A" 
d="M0 0h64v192h128v-192h64v384h-64v-128h-128v128h-64v-384v0zM64 384h128v64h-128v-64v0z" />
    <glyph glyph-name="B" unicode="B" 
d="M192 64h64v128h-64v-128h-128v128h128v64h-128v128h128v64h-192v-448h192v64v0zM192 256h64v128h-64v-128v0z" />
    <glyph glyph-name="C" unicode="C" 
d="M64 0h128v64h-128v-64v0zM192 64h64v64h-64v-64v0zM0 64h64v320h-64v-320v0zM192 320h64v64h-64v-64v0zM64 384h128v64h-128v-64v0z" />
    <glyph glyph-name="D" unicode="D" 
d="M192 64h64v320h-64v-320h-128v320h128v64h-192v-448h192v64v0z" />
    <glyph glyph-name="E" unicode="E" horiz-adv-x="256" 
d="M0 0h192v64h-128v128h128v64h-128v128h128v64h-192v-448v0z" />
    <glyph glyph-name="F" unicode="F" horiz-adv-x="256" 
d="M0 0h64v192h128v64h-128v128h128v64h-192v-448v0z" />
    <glyph glyph-name="G" unicode="G" 
d="M64 0h128v64h-128v-64v0zM192 64h64v192h-128v-64h64v-128v0zM0 64h64v320h-64v-320v0zM192 320h64v64h-64v-64v0zM64 384h128v64h-128v-64v0z" />
    <glyph glyph-name="H" unicode="H" 
d="M0 0h64v192h128v-192h64v448h-64v-192h-128v192h-64v-448v0z" />
    <glyph glyph-name="I" unicode="I" horiz-adv-x="256" 
d="M0 0h192v64h-64v320h64v64h-192v-64h64v-320h-64v-64v0z" />
    <glyph glyph-name="J" unicode="J" 
d="M64 0h128v64h-128v-64v0zM0 64h64v64h-64v-64v0zM192 64h64v384h-192v-64h128v-320v0z" />
    <glyph glyph-name="K" unicode="K" 
d="M192 0h64v128h-64v-128v0zM128 128h64v64h-64v-64v0zM128 256h64v64h-64v-64h-64v192h-64v-448h64v192h64v64v0zM192 320h64v128h-64v-128v0z" />
    <glyph glyph-name="L" unicode="L" horiz-adv-x="256" 
d="M0 0h192v64h-128v384h-64v-448v0z" />
    <glyph glyph-name="M" unicode="M" horiz-adv-x="384" 
d="M128 256h64v64h-64v-64v0zM0 0h64v320h64v64h-64v64h-64v-448v0zM256 0h64v448h-64v-64h-64v-64h64v-320v0z" />
    <glyph glyph-name="N" unicode="N" horiz-adv-x="384" 
d="M128 256h64v64h-64v-64v0zM0 0h64v320h64v64h-64v64h-64v-448v0zM256 0h64v448h-64v-192h-64v-64h64v-192v0z" />
    <glyph glyph-name="O" unicode="O" 
d="M64 0h128v64h-128v-64v0zM0 64h64v320h-64v-320v0zM192 64h64v320h-64v-320v0zM64 384h128v64h-128v-64v0z" />
    <glyph glyph-name="P" unicode="P" 
d="M192 256h64v128h-64v-128h-128v128h128v64h-192v-448h64v192h128v64v0z" />
    <glyph glyph-name="Q" unicode="Q" 
d="M64 0h64v64h-64v-64v0zM192 0h64v64h-64v-64v0zM128 64h64v64h-64v-64v0zM0 64h64v320h-64v-320v0zM192 128h64v256h-64v-256v0zM64 384h128v64h-128v-64v0z" />
    <glyph glyph-name="R" unicode="R" 
d="M192 0h64v192h-64v-192v0zM192 256h64v128h-64v-128h-128v128h128v64h-192v-448h64v192h128v64v0z" />
    <glyph glyph-name="S" unicode="S" 
d="M64 0h128v64h-128v-64v0zM0 64h64v64h-64v-64v0zM192 64h64v128h-64v-128v0zM64 192h128v64h-128v-64v0zM0 256h64v128h-64v-128v0zM192 320h64v64h-64v-64v0zM64 384h128v64h-128v-64v0z" />
    <glyph glyph-name="T" unicode="T" horiz-adv-x="384" 
d="M128 0h64v384h128v64h-320v-64h128v-384v0z" />
    <glyph glyph-name="U" unicode="U" 
d="M64 0h128v64h-128v-64v0zM0 64h64v384h-64v-384v0zM192 64h64v384h-64v-384v0z" />
    <glyph glyph-name="V" unicode="V" horiz-adv-x="384" 
d="M128 0h64v64h-64v-64v0zM64 64h64v64h-64v-64v0zM192 64h64v64h-64v-64v0zM0 128h64v320h-64v-320v0zM256 128h64v320h-64v-320v0z" />
    <glyph glyph-name="W" unicode="W" horiz-adv-x="384" 
d="M128 128h64v64h-64v-64h-64v320h-64v-448h64v64h64v64v0zM256 0h64v448h-64v-320h-64v-64h64v-64v0z" />
    <glyph glyph-name="X" unicode="X" horiz-adv-x="384" 
d="M0 0h64v128h-64v-128v0zM256 0h64v128h-64v-128v0zM64 128h64v64h-64v-64v0zM192 128h64v64h-64v-64v0zM128 192h64v64h-64v-64v0zM64 256h64v64h-64v-64v0zM192 256h64v64h-64v-64v0zM0 320h64v128h-64v-128v0zM256 320h64v128h-64v-128v0z" />
    <glyph glyph-name="Y" unicode="Y" horiz-adv-x="384" 
d="M128 0h64v192h64v64h-192v-64h64v-192v0zM0 256h64v192h-64v-192v0zM256 256h64v192h-64v-192v0z" />
    <glyph glyph-name="Z" unicode="Z" horiz-adv-x="384" 
d="M0 0h320v64h-256v64h-64v-128v0zM64 128h64v64h-64v-64v0zM128 192h64v64h-64v-64v0zM192 256h64v64h-64v-64v0zM256 320h64v128h-320v-64h256v-64v0z" />
    <glyph glyph-name="bracketleft" unicode="[" horiz-adv-x="256" 
d="M0 -64h192v64h-128v448h128v64h-192v-576v0z" />
    <glyph glyph-name="backslash" unicode="\" horiz-adv-x="256" 
d="M128 0h64v128h-64v-128v0zM64 128h64v192h-64v-192v0zM0 320h64v128h-64v-128v0z" />
    <glyph glyph-name="bracketright" unicode="]" horiz-adv-x="256" 
d="M0 -64h192v576h-192v-64h128v-448h-128v-64v0z" />
    <glyph glyph-name="asciicircum" unicode="^" horiz-adv-x="384" 
d="M0 320h64v64h-64v-64v0zM256 320h64v64h-64v-64v0zM64 384h64v64h-64v-64v0zM192 384h64v64h-64v-64v0zM128 448h64v64h-64v-64v0z" />
    <glyph glyph-name="underscore" unicode="_" 
d="M0 0h256v64h-256v-64v0z" />
    <glyph glyph-name="grave" unicode="`" horiz-adv-x="192" 
d="M64 384h64v64h-64v-64v0zM0 448h64v64h-64v-64v0z" />
    <glyph glyph-name="a" unicode="a" 
d="M0 64h64v64h-64v-64v0zM0 192h64v64h-64v-64v0zM64 0h192v256h-64v-64h-128v-64h128v-64h-128v-64v0zM64 256h128v64h-128v-64v0z" />
    <glyph glyph-name="b" unicode="b" 
d="M192 64h64v192h-64v-192h-128v192h128v64h-128v128h-64v-448h192v64v0z" />
    <glyph glyph-name="c" unicode="c" horiz-adv-x="256" 
d="M64 0h128v64h-128v-64v0zM0 64h64v192h-64v-192v0zM64 256h128v64h-128v-64v0z" />
    <glyph glyph-name="d" unicode="d" 
d="M0 64h64v192h-64v-192v0zM64 0h192v448h-64v-128h-128v-64h128v-192h-128v-64v0z" />
    <glyph glyph-name="e" unicode="e" 
d="M64 0h192v64h-192v-64v0zM0 64h64v64h192v128h-64v-64h-128v64h-64v-192v0zM64 256h128v64h-128v-64v0z" />
    <glyph glyph-name="f" unicode="f" horiz-adv-x="256" 
d="M0 0h64v192h64v64h-64v128h-64v-384v0zM64 384h128v64h-128v-64v0z" />
    <glyph glyph-name="g" unicode="g" 
d="M64 -192h128v64h-128v-64v0zM0 -128h64v64h-64v-64v0zM0 64h64v192h-64v-192v0zM192 -128h64v448h-192v-64h128v-192h-128v-64h128v-128v0z" />
    <glyph glyph-name="h" unicode="h" 
d="M192 0h64v256h-64v-256v0zM0 0h64v256h128v64h-128v128h-64v-448v0z" />
    <glyph glyph-name="i" unicode="i" horiz-adv-x="128" 
d="M0 0h64v256h-64v-256v0zM0 320h64v64h-64v-64v0z" />
    <glyph glyph-name="j" unicode="j" horiz-adv-x="192" 
d="M0 -128h64v64h-64v-64v0zM64 -64h64v320h-64v-320v0zM64 320h64v64h-64v-64v0z" />
    <glyph glyph-name="k" unicode="k" 
d="M192 0h64v128h-64v-128v0zM192 192h64v128h-64v-128h-128v256h-64v-448h64v128h128v64v0z" />
    <glyph glyph-name="l" unicode="l" horiz-adv-x="128" 
d="M0 0h64v448h-64v-448v0z" />
    <glyph glyph-name="m" unicode="m" horiz-adv-x="384" 
d="M128 0h64v256h-64v-256v0zM256 0h64v256h-64v-256v0zM0 0h64v256h64v64h-128v-320v0zM192 256h64v64h-64v-64v0z" />
    <glyph glyph-name="n" unicode="n" 
d="M192 0h64v256h-64v-256v0zM0 0h64v256h128v64h-192v-320v0z" />
    <glyph glyph-name="o" unicode="o" 
d="M64 0h128v64h-128v-64v0zM0 64h64v192h-64v-192v0zM192 64h64v192h-64v-192v0zM64 256h128v64h-128v-64v0z" />
    <glyph glyph-name="p" unicode="p" 
d="M192 64h64v192h-64v-192h-128v192h128v64h-192v-448h64v128h128v64v0z" />
    <glyph glyph-name="q" unicode="q" 
d="M0 64h64v192h-64v-192v0zM192 -128h64v448h-192v-64h128v-192h-128v-64h128v-128v0z" />
    <glyph glyph-name="r" unicode="r" horiz-adv-x="256" 
d="M0 0h64v192h64v64h-64v64h-64v-320v0zM128 256h64v64h-64v-64v0z" />
    <glyph glyph-name="s" unicode="s" 
d="M0 0h192v64h-192v-64v0zM192 64h64v64h-64v-64v0zM64 128h128v64h-128v-64v0zM0 192h64v64h-64v-64v0zM64 256h192v64h-192v-64v0z" />
    <glyph glyph-name="t" unicode="t" horiz-adv-x="192" 
d="M64 0h64v64h-64v-64v0zM0 64h64v192h64v64h-64v128h-64v-384v0z" />
    <glyph glyph-name="u" unicode="u" 
d="M0 64h64v256h-64v-256v0zM64 0h192v320h-64v-256h-128v-64v0z" />
    <glyph glyph-name="v" unicode="v" horiz-adv-x="384" 
d="M128 0h64v64h-64v-64v0zM64 64h64v64h-64v-64v0zM192 64h64v64h-64v-64v0zM0 128h64v192h-64v-192v0zM256 128h64v192h-64v-192v0z" />
    <glyph glyph-name="w" unicode="w" horiz-adv-x="384" 
d="M128 64h64v64h-64v-64h-64v256h-64v-320h128v64v0zM192 0h128v320h-64v-256h-64v-64v0z" />
    <glyph glyph-name="x" unicode="x" horiz-adv-x="384" 
d="M0 0h64v64h-64v-64v0zM256 0h64v64h-64v-64v0zM64 64h64v64h-64v-64v0zM192 64h64v64h-64v-64v0zM128 128h64v64h-64v-64v0zM64 192h64v64h-64v-64v0zM192 192h64v64h-64v-64v0zM0 256h64v64h-64v-64v0zM256 256h64v64h-64v-64v0z" />
    <glyph glyph-name="y" unicode="y" 
d="M64 -192h128v64h-128v-64v0zM0 -128h64v64h-64v-64v0zM0 64h64v256h-64v-256v0zM192 -128h64v448h-64v-256h-128v-64h128v-128v0z" />
    <glyph glyph-name="z" unicode="z" horiz-adv-x="256" 
d="M0 0h192v64h-128v64h-64v-128v0zM64 128h64v64h-64v-64v0zM128 192h64v128h-192v-64h128v-64v0z" />
    <glyph glyph-name="braceleft" unicode="{" 
d="M128 -64h128v64h-128v-64v0zM64 0h64v192h-64v-192v0zM0 192h64v64h-64v-64v0zM64 256h64v192h-64v-192v0zM128 448h128v64h-128v-64v0z" />
    <glyph glyph-name="bar" unicode="|" horiz-adv-x="128" 
d="M0 -64h64v576h-64v-576v0z" />
    <glyph glyph-name="braceright" unicode="}" 
d="M0 -64h128v64h-128v-64v0zM128 0h64v192h-64v-192v0zM192 192h64v64h-64v-64v0zM128 256h64v192h-64v-192v0zM0 448h128v64h-128v-64v0z" />
    <glyph glyph-name="asciitilde" unicode="~" 
d="M0 128h64v64h64v64h-128v-128v0zM128 128h128v128h-64v-64h-64v-64v0z" />
    <glyph glyph-name="uni0401" unicode="&#x401;" horiz-adv-x="256" 
d="M0 0h192v64h-128v128h128v64h-128v128h128v64h-192v-448v0zM0 576h64v-64h-64v64zM128 576h64v-64h-64v64z" />
    <glyph glyph-name="uni0410" unicode="&#x410;" 
d="M0 0h64v192h128v-192h64v384h-64v-128h-128v128h-64v-384v0zM64 384h128v64h-128v-64v0z" />
    <glyph glyph-name="uni0411" unicode="&#x411;" 
d="M0 448h192v-64h-128v-128h128v-64h-128v-128h128v-64h-192v448zM192 192h64v-128h-64v128z" />
    <glyph glyph-name="uni0412" unicode="&#x412;" 
d="M192 64h64v128h-64v-128h-128v128h128v64h-128v128h128v64h-192v-448h192v64v0zM192 256h64v128h-64v-128v0z" />
    <glyph glyph-name="uni0413" unicode="&#x413;" 
d="M0 448v-448h64v384h192v64h-256z" />
    <glyph glyph-name="uni0414" unicode="&#x414;" horiz-adv-x="384" 
d="M128 448h128v-384h64v-64h-320v64h64v320h64v-320h64v320h-64v64z" />
    <glyph glyph-name="uni0415" unicode="&#x415;" horiz-adv-x="256" 
d="M0 0h192v64h-128v128h128v64h-128v128h128v64h-192v-448v0z" />
    <glyph glyph-name="uni0416" unicode="&#x416;" horiz-adv-x="384" 
d="M0 448h64v-192h-64v192zM128 448h64v-192h64v-64h-64v-192h-64v192h-64v64h64v192zM256 448h64v-192h-64v192zM0 192h64v-192h-64v192zM256 192h64v-192h-64v192z" />
    <glyph glyph-name="uni0417" unicode="&#x417;" 
d="M64 0h128v64h-128v-64v0zM0 64h64v64h-64v-64v0zM192 64h64v128h-64v-128v0zM64 192h128v64h-128v-64v0zM0 320h64v64h-64v-64v0zM192 256h64v128h-64v-128v0zM64 384h128v64h-128v-64v0z" />
    <glyph glyph-name="uni0418" unicode="&#x418;" horiz-adv-x="384" 
d="M0 448h64v-320h64v-64h-64v-64h-64v448zM256 448h64v-448h-64v192h-64v64h64v192zM128 192h64v-64h-64v64z" />
    <glyph glyph-name="uni0419" unicode="&#x419;" horiz-adv-x="384" 
d="M192 575h64v-63h-64v63zM128 512h64v-64h-64v64zM0 448h64v-320h64v-64h-64v-64h-64v448zM256 448h64v-448h-64v192h-64v64h64v192zM128 192h64v-64h-64v64z" />
    <glyph glyph-name="uni041A" unicode="&#x41a;" 
d="M192 0h64v128h-64v-128v0zM128 128h64v64h-64v-64v0zM128 256h64v64h-64v-64h-64v192h-64v-448h64v192h64v64v0zM192 320h64v128h-64v-128v0z" />
    <glyph glyph-name="uni041B" unicode="&#x41b;" horiz-adv-x="384" 
d="M128 448h192v-448h-64v384h-128v64zM64 384h64v-320h-64v320zM0 64h64v-64h-64v64z" />
    <glyph glyph-name="uni041C" unicode="&#x41c;" horiz-adv-x="384" 
d="M128 256h64v64h-64v-64v0zM0 0h64v320h64v64h-64v64h-64v-448v0zM256 0h64v448h-64v-64h-64v-64h64v-320v0z" />
    <glyph glyph-name="uni041D" unicode="&#x41d;" 
d="M0 0h64v192h128v-192h64v448h-64v-192h-128v192h-64v-448v0z" />
    <glyph glyph-name="uni041E" unicode="&#x41e;" 
d="M64 0h128v64h-128v-64v0zM0 64h64v320h-64v-320v0zM192 64h64v320h-64v-320v0zM64 384h128v64h-128v-64v0z" />
    <glyph glyph-name="uni041F" unicode="&#x41f;" 
d="M0 0h64v384h128v-384h64v448h-64h-128h-64v-448v0z" />
    <glyph glyph-name="uni0420" unicode="&#x420;" 
d="M192 256h64v128h-64v-128h-128v128h128v64h-192v-448h64v192h128v64v0z" />
    <glyph glyph-name="uni0421" unicode="&#x421;" 
d="M64 0h128v64h-128v-64v0zM192 64h64v64h-64v-64v0zM0 64h64v320h-64v-320v0zM192 320h64v64h-64v-64v0zM64 384h128v64h-128v-64v0z" />
    <glyph glyph-name="uni0422" unicode="&#x422;" horiz-adv-x="384" 
d="M128 0h64v384h128v64h-320v-64h128v-384v0z" />
    <glyph glyph-name="uni0423" unicode="&#x423;" 
d="M0 448h64v-192h-64v192zM192 448h64v-384h-64v128h-128v64h128v192zM0 128h64v-64h-64v64zM64 64h128v-64h-128v64z" />
    <glyph glyph-name="uni0424" unicode="&#x424;" horiz-adv-x="384" 
d="M64 448h192v-64h-64v-192h64v-64h-64v-128h-64v128h-64v64h64v192h-64v64zM0 384h64v-192h-64v192zM256 384h64v-192h-64v192z" />
    <glyph glyph-name="uni0425" unicode="&#x425;" horiz-adv-x="384" 
d="M0 0h64v128h-64v-128v0zM256 0h64v128h-64v-128v0zM64 128h64v64h-64v-64v0zM192 128h64v64h-64v-64v0zM128 192h64v64h-64v-64v0zM64 256h64v64h-64v-64v0zM192 256h64v64h-64v-64v0zM0 320h64v128h-64v-128v0zM256 320h64v128h-64v-128v0z" />
    <glyph glyph-name="uni0426" unicode="&#x426;" horiz-adv-x="384" 
d="M0 448h64v-384h128v384h64v-384h64v-128h-64v64h-256v448z" />
    <glyph glyph-name="uni0427" unicode="&#x427;" 
d="M0 448h64v-192h-64v192zM192 448h64v-448h-64v192h-128v64h128v192z" />
    <glyph glyph-name="uni0428" unicode="&#x428;" horiz-adv-x="384" 
d="M0 448h64v-384h64v320h64v-320h64v384h64v-448h-320v448z" />
    <glyph glyph-name="uni0429" unicode="&#x429;" horiz-adv-x="410" 
d="M0 448h64v-384h64v320h64v-320h64v384h64v-508h-64v60h-256v448z" />
    <glyph glyph-name="uni042A" unicode="&#x42a;" horiz-adv-x="380" 
d="M0 448h128v-192h128v-64h-128v-128h128v-64h-192v384h-64v64zM256 192h64v-128h-64v128z" />
    <glyph glyph-name="uni042B" unicode="&#x42b;" horiz-adv-x="380" 
d="M0 448h64v-192h128v-64h-128v-128h128v-64h-192v448zM256 448h64v-448h-64v64h-64v128h64v256z" />
    <glyph glyph-name="uni042C" unicode="&#x42c;" 
d="M192 192v64h-128v192h-64v-448h192v64h-128v128h128v-128h64v128h-64z" />
    <glyph glyph-name="uni042D" unicode="&#x42d;" 
d="M64 448h128v-64h-128v64zM0 384h64v-64h-64v64zM192 384h64v-320h-64v128h-128v64h128v128zM0 128h64v-64h-64v64zM64 64h128v-64h-128v64z" />
    <glyph glyph-name="uni042E" unicode="&#x42e;" horiz-adv-x="384" 
d="M0 448h64v-192h64v128h64v-320h-64v128h-64v-192h-64v448zM192 448h64v-64h-64v64zM256 384h64v-320h-64v320zM192 64h64v-64h-64v64z" />
    <glyph glyph-name="uni042F" unicode="&#x42f;" 
d="M64 0v192h-64v-192h64zM64 256v-64h128v-192h64v448h-192v-64h128v-128h-128v128h-64v-128h64z" />
    <glyph glyph-name="uni0430" unicode="&#x430;" 
d="M0 64h64v64h-64v-64v0zM0 192h64v64h-64v-64v0zM64 0h192v256h-64v-64h-128v-64h128v-64h-128v-64v0zM64 256h128v64h-128v-64v0z" />
    <glyph glyph-name="uni0431" unicode="&#x431;" 
d="M64 448h128v-64h-128v64zM0 384h64v-128h128v-64h-128v-128h128v-64h-192v384zM192 192h64v-128h-64v128z" />
    <glyph glyph-name="uni0432" unicode="&#x432;" 
d="M0 320h192v-64h-128v-64h128v-64h-128v-64h128v-64h-192v320zM192 256h64v-64h-64v64zM192 128h64v-64h-64v64z" />
    <glyph glyph-name="uni0433" unicode="&#x433;" horiz-adv-x="256" 
d="M0 0h64v256h128v64h-192v-320v0z" />
    <glyph glyph-name="uni0434" unicode="&#x434;" 
d="M64 -192h128v64h-128v-64v0zM0 -128h64v64h-64v-64v0zM0 64h64v192h-64v-192v0zM192 -128h64v448h-192v-64h128v-192h-128v-64h128v-128v0z" />
    <glyph glyph-name="uni0435" unicode="&#x435;" 
d="M64 0h192v64h-192v-64v0zM0 64h64v64h192v128h-64v-64h-128v64h-64v-192v0zM64 256h128v64h-128v-64v0z" />
    <glyph glyph-name="uni0436" unicode="&#x436;" horiz-adv-x="384" 
d="M0 320h64v-128h-64v128zM128 320h64v-128h64v-64h-64v-128h-64v128h-64v64h64v128zM256 320h64v-128h-64v128zM0 128h64v-128h-64v128zM256 128h64v-128h-64v128z" />
    <glyph glyph-name="uni0437" unicode="&#x437;" 
d="M0 320h192v-64h-192v64zM192 256h64v-64h-64v64zM64 192h128v-64h-128v64zM192 128h64v-64h-64v64zM0 64h192v-64h-192v64z" />
    <glyph glyph-name="uni0438" unicode="&#x438;" 
d="M0 64h64v256h-64v-256v0zM64 0h192v320h-64v-256h-128v-64v0z" />
    <glyph glyph-name="uni0439" unicode="&#x439;" 
d="M0 64h64v256h-64v-256v0zM64 0h192v320h-64v-256h-128v-64v0zM64 448h128v-64h-128v64z" />
    <glyph glyph-name="uni043A" unicode="&#x43a;" 
d="M192 0h64v128h-64v-128v0zM192 192h64v128h-64v-128h-128v128h-64v-320h64v128h128v64v0z" />
    <glyph glyph-name="uni043B" unicode="&#x43b;" 
d="M128 320h128v-320h-64v256h-64v64zM64 256h64v-192h-64v192zM0 64h64v-64h-64v64z" />
    <glyph glyph-name="uni043C" unicode="&#x43c;" horiz-adv-x="384" 
d="M128 256v64h-128v-320h64v256h64v-131h64v131h-64zM192 320v-64h64v-256h64v320h-128z" />
    <glyph glyph-name="uni043D" unicode="&#x43d;" 
d="M0 320h64v-128h128v128h64v-320h-64v128h-128v-128h-64v320z" />
    <glyph glyph-name="uni043E" unicode="&#x43e;" 
d="M64 0h128v64h-128v-64v0zM0 64h64v192h-64v-192v0zM192 64h64v192h-64v-192v0zM64 256h128v64h-128v-64v0z" />
    <glyph glyph-name="uni043F" unicode="&#x43f;" 
d="M0 320h256v-320h-64v256h-128v-256h-64v320z" />
    <glyph glyph-name="uni0440" unicode="&#x440;" 
d="M192 64h64v192h-64v-192h-128v192h128v64h-192v-448h64v128h128v64v0z" />
    <glyph glyph-name="uni0441" unicode="&#x441;" horiz-adv-x="256" 
d="M64 0h128v64h-128v-64v0zM0 64h64v192h-64v-192v0zM64 256h128v64h-128v-64v0z" />
    <glyph glyph-name="uni0442" unicode="&#x442;" horiz-adv-x="384" 
d="M0 320h320v-64h-128v-256h-64v256h-128v64z" />
    <glyph glyph-name="uni0443" unicode="&#x443;" 
d="M64 -192h128v64h-128v-64v0zM0 -128h64v64h-64v-64v0zM0 64h64v256h-64v-256v0zM192 -128h64v448h-64v-256h-128v-64h128v-128v0z" />
    <glyph glyph-name="uni0444" unicode="&#x444;" horiz-adv-x="384" 
d="M64 320h192v-64h-64v-128h64v-64h-64v-64h-64v64h-64v64h64v128h-64v64zM0 256h64v-128h-64v128zM256 256h64v-128h-64v128z" />
    <glyph glyph-name="uni0445" unicode="&#x445;" horiz-adv-x="384" 
d="M0 0h64v64h-64v-64v0zM256 0h64v64h-64v-64v0zM64 64h64v64h-64v-64v0zM192 64h64v64h-64v-64v0zM128 128h64v64h-64v-64v0zM64 192h64v64h-64v-64v0zM192 192h64v64h-64v-64v0zM0 256h64v64h-64v-64v0zM256 256h64v64h-64v-64v0z" />
    <glyph glyph-name="uni0446" unicode="&#x446;" horiz-adv-x="384" 
d="M0 320h64v-256h128v256h63v-256h64v-127h-64v63h-255v320z" />
    <glyph glyph-name="uni0447" unicode="&#x447;" 
d="M0 320h64v-128h-64v128zM192 320h64v-320h-64v128h-128v64h128v128z" />
    <glyph glyph-name="uni0448" unicode="&#x448;" horiz-adv-x="384" 
d="M0 320h64v-256h64v192h64v-192h64v256h64v-320h-320v320z" />
    <glyph glyph-name="uni0449" unicode="&#x449;" horiz-adv-x="384" 
d="M0 320h64v-256h64v192h64v-192h64v256h64v-384h-64v64h-256v320z" />
    <glyph glyph-name="uni044A" unicode="&#x44a;" horiz-adv-x="384" 
d="M0 320h128v-128h128v-64h-128v-64h128v-64h-192v256h-64v64zM256 128h64v-64h-64v64z" />
    <glyph glyph-name="uni044B" unicode="&#x44b;" horiz-adv-x="384" 
d="M0 320h64v-128h128v-64h-128v-64h128v-64h-192v320zM256 320h64v-320h-64v64h-64v64h64v192z" />
    <glyph glyph-name="uni044C" unicode="&#x44c;" horiz-adv-x="321" 
d="M0 320h64v-128h128v-64h-128v-64h128v-64h-192v256v64zM192 128h64v-64h-64v64z" />
    <glyph glyph-name="uni044D" unicode="&#x44d;" horiz-adv-x="256" 
d="M0 320h128v-64h-128v64zM128 256h64v-192h-64v64h-64v64h64v64zM0 64h128v-64h-128v64z" />
    <glyph glyph-name="uni044E" unicode="&#x44e;" horiz-adv-x="384" 
d="M0 320h64v-128h64v64h64v-192h-64v64h-64v-128h-64v320zM192 320h64v-64h-64v64zM256 256h64v-192h-64v192zM192 64h64v-64h-64v64z" />
    <glyph glyph-name="uni044F" unicode="&#x44f;" 
d="M64 320h192v-320h-64v128h-128v64h128v64h-128v64zM0 256h64v-64h-64v64zM0 128h64v-128h-64v128z" />
    <glyph glyph-name="uni0451" unicode="&#x451;" 
d="M64 0h192v64h-192v-64v0zM0 64h64v64h192v128h-64v-64h-128v64h-64v-192v0zM64 256h128v64h-128v-64v0zM0 448h64v-64h-64v64zM192 448h64v-64h-64v64z" />
    <glyph glyph-name="quoteleft" unicode="&#x2018;" horiz-adv-x="192" 
d="M0 256h128v64h-64v64h-64v-128v0zM64 384h64v64h-64v-64v0z" />
    <glyph glyph-name="quoteright" unicode="&#x2019;" horiz-adv-x="192" 
d="M0 256h64v64h-64v-64v0zM64 320h64v128h-128v-64h64v-64v0z" />
    <glyph glyph-name="quotedblleft" unicode="&#x201c;" horiz-adv-x="384" 
d="M0 256h128v64h-64v64h-64v-128v0zM192 256h128v64h-64v64h-64v-128v0zM64 384h64v64h-64v-64v0zM256 384h64v64h-64v-64v0z" />
    <glyph glyph-name="quotedblright" unicode="&#x201d;" horiz-adv-x="384" 
d="M0 256h64v64h-64v-64v0zM192 256h64v64h-64v-64v0zM64 320h64v128h-128v-64h64v-64v0zM256 320h64v128h-128v-64h64v-64v0z" />
    <glyph glyph-name=".null" horiz-adv-x="0" 
 />
    <glyph glyph-name="nonmarkingreturn" horiz-adv-x="512" 
 />
  </font>
</defs>
</svg>
